<?xml version="1.0" standalone="no"?>
<!DOCTYPE svg PUBLIC "-//W3C//DTD SVG 20010904//EN"
 "http://www.w3.org/TR/2001/REC-SVG-20010904/DTD/svg10.dtd">
<svg version="1.0" xmlns="http://www.w3.org/2000/svg"
 width="580.000000pt" height="386.000000pt" viewBox="0 0 580.000000 386.000000"
 preserveAspectRatio="xMidYMid meet">

<g transform="translate(0.000000,386.000000) scale(0.100000,-0.100000)"
fill="#000000" stroke="none">
<path d="M2852 3558 c3 -7 11 -13 19 -13 21 0 22 -39 2 -64 -16 -19 -21 -20
-51 -9 -30 11 -35 11 -46 -5 -9 -11 -26 -17 -50 -17 -20 0 -36 -5 -36 -11 0
-5 -4 -8 -9 -5 -12 8 -61 -43 -77 -81 -33 -77 -2 -167 71 -206 18 -9 19 -9 5
7 -8 10 -15 24 -16 31 -1 7 -12 26 -24 43 -18 24 -20 33 -11 51 10 17 9 20 -4
15 -10 -4 -15 0 -15 11 0 9 9 19 20 22 11 3 17 10 14 15 -4 6 8 7 30 3 23 -5
36 -3 36 3 0 15 -33 24 -55 16 -13 -5 -16 -3 -13 7 5 14 84 37 94 26 3 -3 1
-14 -5 -25 -7 -14 -7 -24 3 -38 13 -16 17 -17 57 -4 24 7 48 16 53 18 15 8 67
8 73 0 2 -5 14 -8 27 -8 12 0 27 -5 33 -11 6 -6 21 -9 34 -7 27 3 38 40 19 64
-10 12 -8 14 14 14 24 0 26 -2 15 -21 -14 -27 13 -61 33 -41 14 14 42 16 33 2
-3 -5 3 -10 14 -10 11 0 25 -8 31 -17 9 -15 10 -14 4 7 -9 38 -50 93 -83 113
-16 9 -45 17 -64 17 -22 0 -37 6 -41 15 -3 8 -10 15 -15 15 -6 0 -8 -6 -5 -14
3 -7 -2 -16 -10 -19 -8 -3 -20 -16 -27 -29 -12 -23 -12 -23 10 -4 11 11 21 17
21 14 0 -14 -23 -68 -29 -68 -15 0 -31 25 -31 47 0 13 -7 26 -14 29 -12 5 -11
13 7 50 16 34 19 49 11 62 -14 21 -58 30 -52 10z m-7 -112 c22 -22 23 -28 14
-55 -15 -42 -26 -39 -40 9 -7 22 -16 40 -21 40 -4 0 -8 7 -8 15 0 23 28 18 55
-9z m-64 -16 c34 -19 20 -90 -18 -90 -7 0 -13 9 -13 20 0 11 5 20 10 20 6 0
10 7 10 15 0 16 -43 31 -59 20 -12 -7 -15 8 -4 18 10 10 52 8 74 -3z m274 -5
c0 -5 -10 -11 -22 -13 -25 -4 -32 -37 -10 -45 19 -7 -7 -30 -29 -25 -30 5 -31
62 -2 82 24 17 63 18 63 1z m-165 -30 c0 -8 -4 -15 -10 -15 -5 0 -10 7 -10 15
0 8 5 15 10 15 6 0 10 -7 10 -15z m234 -11 c19 -7 22 -26 4 -22 -7 1 -23 -2
-36 -6 -30 -10 -37 -3 -17 18 18 18 25 19 49 10z"/>
<path d="M2821 3423 c0 -4 4 -17 9 -28 8 -19 9 -19 9 2 1 12 -3 25 -9 28 -5 3
-10 3 -9 -2z"/>
<path d="M2834 3530 c1 -16 46 -28 46 -12 0 6 -9 8 -19 5 -11 -3 -21 1 -24 9
-3 9 -4 8 -3 -2z"/>
<path d="M2914 3458 l-19 -23 25 20 c14 11 27 21 29 22 2 2 0 3 -6 3 -5 0 -18
-10 -29 -22z"/>
<path d="M2657 3310 c-3 -11 -1 -20 4 -20 5 0 9 9 9 20 0 11 -2 20 -4 20 -2 0
-6 -9 -9 -20z"/>
<path d="M3115 3300 c-15 -7 -16 -9 -4 -9 32 -2 40 -25 18 -60 -11 -18 -17
-37 -13 -42 3 -5 0 -18 -7 -27 -13 -16 -12 -16 7 0 20 17 20 16 31 -48 13 -76
46 -125 103 -154 42 -22 96 -26 120 -9 11 7 2 9 -35 8 -27 -1 -57 2 -67 5 -24
11 -30 47 -10 70 16 20 16 20 -2 6 -10 -8 -22 -23 -26 -35 -6 -17 -10 -15 -27
21 -18 37 -18 44 -6 69 11 21 20 26 39 22 13 -2 21 0 18 4 -10 17 -43 9 -62
-16 l-20 -25 -12 49 c-10 41 -9 54 4 79 18 35 28 42 70 53 25 5 26 7 8 8 -13
1 -32 -4 -43 -9 -16 -9 -19 -7 -19 12 0 16 -3 19 -9 10 -6 -10 -10 -9 -14 7
-6 23 -11 24 -42 11z"/>
<path d="M3298 3250 c28 -27 28 -65 0 -84 -18 -13 -19 -16 -6 -16 20 0 38 29
38 63 0 23 -27 57 -45 57 -5 0 1 -9 13 -20z"/>
<path d="M2736 3239 c-16 -12 -26 -30 -26 -46 0 -19 -4 -24 -16 -19 -31 12 -1
-16 32 -30 44 -18 66 -17 32 2 -33 17 -36 49 -7 64 21 12 75 5 84 -10 6 -9
-15 -62 -28 -71 -5 -3 1 -9 12 -12 11 -3 25 -17 31 -32 6 -15 13 -25 17 -21 3
3 -2 21 -12 40 -15 27 -16 39 -8 58 10 22 12 21 32 -25 21 -48 43 -58 49 -24
2 12 -1 15 -12 11 -10 -4 -19 5 -29 28 -24 55 -53 78 -98 78 -27 0 -38 4 -33
11 4 7 26 9 56 7 29 -3 44 -2 36 3 -25 16 -85 10 -112 -12z"/>
<path d="M2910 3246 c-14 -8 -29 -12 -35 -8 -5 3 -4 -2 4 -11 15 -19 46 -24
35 -6 -16 26 46 38 90 18 26 -12 52 -61 41 -78 -9 -15 1 -14 36 5 17 8 28 18
25 21 -3 3 -12 0 -21 -7 -18 -15 -18 -15 -34 27 -19 48 -89 67 -141 39z"/>
<path d="M2442 3234 c-42 -29 -18 -104 35 -104 31 0 50 27 35 51 -17 26 -15
29 12 29 49 0 83 -84 59 -147 -6 -16 -8 -15 -13 6 -8 33 -35 49 -57 35 -26
-16 -23 -48 5 -52 12 -2 22 1 22 6 0 5 -8 9 -17 8 -24 -1 -23 28 1 32 10 2 22
-2 27 -10 11 -17 11 -61 0 -54 -5 3 -11 -4 -14 -16 -6 -21 -7 -21 -25 -5 -10
9 -23 17 -28 17 -5 0 -1 -5 9 -11 9 -5 17 -21 17 -34 0 -29 -21 -41 -79 -44
-24 -2 -51 -10 -60 -18 -14 -15 -11 -16 36 -11 123 12 191 80 201 204 5 62 4
64 -31 99 -28 28 -43 35 -74 35 -21 0 -49 -7 -61 -16z m103 -4 c4 -6 -6 -10
-24 -10 -35 0 -46 -13 -32 -39 13 -23 -8 -45 -33 -35 -18 7 -31 47 -21 64 16
25 98 40 110 20z"/>
<path d="M2953 3220 c48 -14 77 -50 42 -50 -17 0 -19 -9 -5 -30 9 -13 11 -13
20 0 27 41 -6 91 -60 89 -25 -1 -25 -1 3 -9z"/>
<path d="M3185 3220 c-3 -5 -2 -10 4 -10 5 0 13 5 16 10 3 6 2 10 -4 10 -5 0
-13 -4 -16 -10z"/>
<path d="M3242 3206 c-8 -19 -7 -28 4 -43 13 -17 14 -16 8 8 -3 15 -1 30 5 33
13 8 15 26 3 26 -5 0 -14 -11 -20 -24z"/>
<path d="M2741 3106 c-16 -19 -4 -44 30 -61 32 -17 43 -19 34 -6 -3 6 3 15 12
21 17 11 17 11 -1 6 -26 -9 -56 2 -56 21 0 12 8 14 38 10 40 -7 26 6 -19 17
-17 4 -31 1 -38 -8z"/>
<path d="M2995 3109 c-11 -4 -14 -8 -7 -8 21 -1 13 -31 -10 -41 -13 -5 -18 -9
-13 -10 6 0 3 -5 -5 -10 -13 -8 -12 -10 3 -10 30 0 67 31 67 56 0 28 -9 34
-35 23z"/>
<path d="M3459 3093 c17 -34 13 -88 -10 -117 -27 -35 -17 -33 21 4 17 17 27
30 23 30 -4 0 -8 16 -9 35 0 21 -8 43 -18 53 -17 16 -18 16 -7 -5z"/>
<path d="M2294 3074 c-20 -20 -25 -33 -22 -60 4 -34 4 -34 -37 -34 -40 0 -65
-13 -65 -34 0 -6 5 -3 11 7 5 9 19 17 30 17 11 0 17 -5 14 -10 -4 -6 -1 -17 5
-25 6 -8 9 -19 5 -25 -9 -14 -55 -13 -55 2 0 6 -3 8 -6 5 -11 -11 17 -37 40
-37 29 0 46 18 46 50 0 20 2 22 10 10 28 -43 -65 -140 -134 -140 -23 0 -31 6
-63 44 -15 18 -7 43 15 49 12 3 11 4 -3 3 -12 -1 -23 -12 -29 -29 -13 -37 18
-81 62 -85 18 -2 32 -7 32 -12 0 -8 -100 -50 -119 -50 -16 0 -61 -42 -61 -56
0 -24 27 -27 49 -5 12 12 29 21 38 21 13 0 8 -10 -19 -37 -37 -39 -76 -109
-98 -178 -7 -22 -20 -45 -28 -51 -17 -12 -8 -34 12 -34 8 0 19 7 26 15 18 22
27 19 39 -16 17 -50 13 -69 -24 -106 -33 -33 -73 -42 -68 -15 2 7 -4 12 -12
12 -22 0 -18 -37 4 -50 28 -14 51 -13 45 4 -3 9 6 17 25 24 41 14 65 53 58 94
-4 18 -9 49 -12 68 l-5 35 20 -40 c22 -45 26 -96 8 -128 -10 -20 -10 -21 5 -8
10 7 17 22 17 32 0 11 5 19 10 19 16 0 12 -58 -7 -86 -9 -14 -54 -51 -101 -82
-47 -31 -98 -69 -113 -85 -30 -30 -38 -62 -17 -69 10 -4 10 -10 0 -32 -14 -31
-16 -108 -3 -134 5 -9 14 -30 20 -45 6 -15 16 -25 21 -22 6 4 24 -5 41 -19 37
-31 54 -32 76 -6 20 24 37 6 22 -22 -9 -17 -7 -18 18 -12 34 8 42 14 20 14
-10 0 -17 8 -17 20 0 28 -27 36 -50 15 -11 -10 -26 -15 -36 -11 -16 6 -16 8 1
20 24 18 13 46 -19 46 -32 0 -66 43 -66 85 0 37 18 95 30 95 4 0 11 16 14 35
8 42 44 86 105 127 25 18 55 43 65 56 25 31 30 90 10 120 -19 30 -13 37 18 21
21 -11 22 -11 10 4 -8 9 -23 17 -35 19 -23 3 -45 60 -26 67 6 2 0 8 -12 15
-50 25 -48 106 6 171 34 41 42 26 10 -21 -33 -48 -40 -79 -26 -110 7 -16 19
-24 36 -24 14 0 25 -4 25 -10 0 -5 -4 -10 -10 -10 -5 0 -10 -4 -10 -9 0 -5 9
-7 20 -4 29 8 25 25 -10 45 -35 20 -39 51 -13 101 24 47 55 87 63 82 4 -3 10
8 13 23 7 33 43 92 56 92 5 0 -2 -20 -15 -45 -14 -24 -24 -55 -22 -67 4 -30
34 -36 41 -8 8 32 37 25 37 -9 0 -48 -46 -65 -80 -29 -11 12 -20 17 -20 11 0
-20 38 -44 66 -41 36 4 65 49 48 75 -15 24 -38 27 -57 8 -23 -22 -26 -19 -17
21 12 51 30 65 91 71 62 5 95 30 103 78 5 28 3 30 -27 32 -28 1 -29 0 -9 -7
28 -12 29 -43 2 -70 -14 -14 -33 -20 -65 -20 -25 0 -45 4 -45 9 0 5 19 26 42
45 23 20 36 36 29 36 -21 0 6 28 32 33 21 4 21 4 -2 6 -16 1 -21 6 -18 15 3 8
-1 33 -10 55 -19 49 -11 84 23 100 31 14 54 1 54 -30 0 -24 -19 -24 -36 -1
-12 15 -13 15 -14 1 0 -27 25 -42 49 -29 26 13 27 42 3 63 -26 24 -49 21 -78
-9z m-194 -359 c0 -8 -6 -15 -12 -15 -33 0 -88 -22 -88 -35 0 -8 -4 -15 -10
-15 -16 0 -12 18 10 40 11 11 30 20 43 20 12 0 29 5 37 10 20 13 20 13 20 -5z
m-125 -247 c-8 -38 -31 -78 -45 -78 -15 0 -12 16 5 30 8 7 17 27 21 46 3 19
11 34 16 34 6 0 7 -14 3 -32z m-55 -363 c0 -9 -72 -85 -81 -85 -21 0 -6 30 29
59 35 29 52 37 52 26z m-8 -313 c7 2 15 -1 16 -7 1 -5 -8 -11 -22 -13 -16 -2
-30 5 -45 24 -31 39 -26 52 8 20 16 -15 35 -26 43 -24z"/>
<path d="M3260 3092 c0 -7 -9 -12 -19 -12 -11 0 -22 -4 -25 -9 -3 -4 6 -6 19
-3 26 5 41 19 31 29 -3 4 -6 1 -6 -5z"/>
<path d="M3411 3069 c-10 -17 -15 -18 -27 -9 -8 8 -14 8 -14 2 0 -10 23 -22
45 -22 14 0 28 37 16 44 -4 3 -13 -4 -20 -15z"/>
<path d="M3284 3033 c3 -6 2 -14 -4 -18 -5 -3 -10 -11 -10 -18 0 -6 7 -4 17 6
14 14 15 19 4 29 -9 9 -12 9 -7 1z"/>
<path d="M2461 3004 c-1 -18 26 -37 34 -24 3 5 0 10 -9 10 -8 0 -17 6 -19 13
-4 7 -6 8 -6 1z"/>
<path d="M3545 2998 c11 -6 23 -16 26 -21 12 -17 -3 -47 -22 -47 -18 0 -23 10
-20 36 2 19 -27 24 -41 6 -9 -11 -10 -14 0 -8 8 5 12 1 12 -11 0 -46 59 -59
86 -18 15 23 15 27 0 50 -10 15 -26 25 -39 25 -21 -1 -21 -1 -2 -12z"/>
<path d="M2300 2991 c0 -9 49 -56 53 -50 1 2 -10 16 -25 31 -15 15 -28 23 -28
19z"/>
<path d="M3410 2975 c-14 -8 -20 -14 -14 -15 5 0 19 7 30 15 24 18 16 19 -16
0z"/>
<path d="M2792 2968 c-163 -24 -359 -165 -467 -334 -271 -423 -267 -1043 8
-1449 56 -83 181 -204 249 -243 286 -163 592 -91 819 194 27 34 49 66 49 72 0
6 4 12 9 14 14 5 86 155 114 238 71 208 92 487 53 705 -73 401 -299 706 -588
789 -65 19 -171 25 -246 14z m259 -74 c269 -94 474 -402 530 -793 17 -120 6
-382 -20 -487 -53 -212 -126 -361 -240 -490 -200 -225 -478 -277 -716 -133
-152 91 -296 293 -365 511 -58 182 -76 443 -45 636 37 228 140 450 271 587 26
28 46 55 45 60 -1 6 1 7 5 3 4 -4 23 5 43 21 49 39 114 71 186 93 79 23 226
20 306 -8z"/>
<path d="M3457 2934 c-4 -4 3 -14 14 -22 16 -11 18 -16 8 -23 -10 -6 -9 -10 6
-15 20 -7 54 -43 55 -56 0 -10 -81 -10 -96 0 -6 4 -18 21 -27 37 -14 26 -16
27 -17 8 0 -12 13 -32 31 -47 25 -21 39 -26 80 -24 56 3 72 -9 88 -62 10 -32
10 -33 7 -5 -2 17 -7 38 -11 48 -4 10 -3 17 3 17 13 0 32 -55 32 -95 0 -57
-52 -83 -90 -45 -11 11 -20 16 -20 11 0 -15 42 -41 67 -41 29 0 53 25 53 56 0
36 15 30 55 -23 45 -58 52 -86 31 -118 -14 -22 -14 -25 -1 -25 8 0 17 11 21
25 7 28 24 34 24 8 -1 -10 -9 -43 -19 -72 -14 -38 -26 -58 -42 -63 -24 -9 -39
-25 -39 -43 0 -5 7 1 16 13 8 12 21 22 29 22 24 0 28 -21 6 -36 -25 -18 -27
-52 -5 -80 14 -18 15 -18 4 4 -7 13 -9 36 -5 50 l7 27 12 -30 c8 -16 24 -39
37 -50 l23 -20 -22 29 c-23 31 -28 51 -13 61 5 3 17 -8 27 -24 10 -16 28 -34
42 -40 19 -9 16 -4 -12 22 -40 38 -41 40 -25 103 l12 45 23 -22 c13 -12 30
-19 38 -16 18 7 21 23 6 32 -6 4 -9 1 -8 -7 2 -7 -4 -13 -12 -13 -16 0 -36 35
-44 76 -3 14 -17 42 -31 63 -32 47 -32 71 0 31 23 -28 24 -28 18 -5 -4 14 -35
54 -70 89 l-63 63 37 -7 c48 -8 85 -26 91 -42 2 -7 -4 -13 -13 -13 -9 0 -13
-4 -10 -10 9 -15 22 -12 29 6 12 32 -19 58 -97 81 -41 13 -88 34 -105 48 -16
14 -34 25 -38 25 -10 1 -39 39 -60 78 -8 15 -14 20 -14 12 0 -11 -2 -12 -8 -2
-5 7 -11 9 -15 6z"/>
<path d="M3410 2920 c0 -5 7 -7 15 -4 8 4 15 8 15 10 0 2 -7 4 -15 4 -8 0 -15
-4 -15 -10z"/>
<path d="M2086 2871 c-3 -5 1 -12 10 -15 22 -8 25 -4 9 11 -8 7 -16 9 -19 4z"/>
<path d="M3534 2705 c-18 -13 -18 -14 5 -8 16 4 26 1 33 -11 9 -15 38 -23 38
-10 0 8 -41 44 -50 44 -3 0 -15 -7 -26 -15z"/>
<path d="M3710 2716 c0 -2 11 -6 25 -8 13 -3 22 -1 19 3 -5 9 -44 13 -44 5z"/>
<path d="M3818 2532 c25 -55 39 -69 18 -17 -10 22 -22 45 -27 50 -6 6 -2 -9 9
-33z"/>
<path d="M3682 2493 c2 -10 12 -19 23 -20 11 -2 14 0 8 3 -7 3 -13 12 -13 20
0 8 -5 14 -11 14 -6 0 -9 -8 -7 -17z"/>
<path d="M3890 2298 c-10 -21 -10 -21 3 -6 8 10 18 14 22 10 5 -4 5 -1 1 6
-10 17 -14 15 -26 -10z"/>
<path d="M3900 2275 c-7 -9 -8 -15 -2 -15 5 0 12 7 16 15 3 8 4 15 2 15 -2 0
-9 -7 -16 -15z"/>
<path d="M3705 2258 c6 -12 17 -22 113 -89 23 -16 52 -44 62 -62 19 -30 20
-30 18 -7 -2 14 -10 30 -18 37 -18 15 -6 17 21 3 10 -6 19 -9 19 -6 0 5 -182
121 -190 121 -3 0 -11 4 -17 8 -8 5 -11 3 -8 -5z"/>
<path d="M3915 2103 c14 -37 29 -130 28 -183 0 -49 1 -52 10 -27 11 26 30 40
23 15 -3 -7 -7 -29 -10 -48 -4 -25 -3 -31 4 -20 17 26 12 -16 -5 -50 -9 -17
-13 -30 -11 -30 3 0 12 13 21 30 20 38 20 168 1 215 -8 19 -11 35 -5 35 12 0
12 47 0 54 -5 4 -7 -3 -4 -14 8 -31 -15 -24 -32 10 -17 32 -32 41 -20 13z"/>
<path d="M3751 2013 c-19 -35 21 -92 65 -93 12 0 27 -7 34 -15 17 -21 27 -19
55 10 16 15 25 35 24 52 l-1 28 -9 -31 c-12 -43 -37 -63 -53 -44 -6 9 -23 14
-39 12 -35 -4 -67 22 -67 55 0 16 6 23 20 23 11 0 20 -7 20 -15 0 -8 5 -15 10
-15 16 0 11 37 -6 44 -26 10 -43 7 -53 -11z"/>
<path d="M3900 2008 c0 -13 -22 -29 -60 -42 -8 -2 -1 -4 17 -3 22 1 36 8 44
24 7 13 9 26 6 30 -4 3 -7 0 -7 -9z"/>
<path d="M1980 1976 c-8 -11 -9 -20 -1 -33 10 -17 12 -15 15 17 2 24 33 24 39
-1 7 -28 -33 -69 -69 -69 -16 0 -39 13 -61 35 l-34 34 3 -36 c2 -26 11 -42 31
-57 27 -20 29 -20 41 -3 7 9 21 17 30 17 46 0 91 65 66 95 -16 19 -44 19 -60
1z m-69 -77 c23 -23 17 -39 -9 -23 -16 11 -30 44 -18 44 3 0 15 -9 27 -21z"/>
<path d="M3893 1857 c-38 -13 -51 -37 -29 -53 9 -6 16 -14 16 -18 0 -12 -38
-6 -50 9 -19 23 -37 18 -49 -15 -8 -24 -7 -30 4 -30 8 0 19 -8 24 -17 6 -10
11 -14 11 -9 0 5 -7 17 -16 27 -9 10 -14 25 -10 34 5 15 9 14 33 -3 36 -25 62
-20 90 15 29 36 29 49 1 29 -12 -9 -28 -16 -35 -16 -22 0 -14 20 11 30 13 5
27 14 31 19 3 6 5 10 3 10 -2 -1 -17 -7 -35 -12z"/>
<path d="M1811 1792 c-1 -7 6 -26 15 -43 8 -17 12 -40 9 -52 -5 -17 -4 -19 4
-7 14 20 14 57 0 65 -6 4 -14 17 -19 29 -5 11 -9 15 -9 8z"/>
<path d="M3924 1779 c-12 -11 -38 -27 -60 -34 -21 -8 -31 -14 -21 -15 26 0 21
-13 -29 -69 l-47 -52 -19 21 c-27 29 -31 25 -12 -12 13 -25 14 -38 5 -68 -15
-50 -14 -79 4 -131 12 -32 13 -45 4 -53 -9 -8 -10 -8 -6 0 16 27 -74 33 -94 7
-11 -15 -11 -16 1 -5 24 21 67 14 89 -15 43 -54 37 -99 -24 -171 -39 -46 -43
-33 -6 19 17 23 31 49 31 58 -1 9 -7 2 -14 -14 -14 -33 -54 -71 -129 -122 -50
-35 -87 -86 -86 -118 0 -14 2 -16 6 -5 9 24 53 74 77 87 34 20 90 16 112 -8
17 -19 18 -21 1 -30 -41 -24 0 -82 43 -59 22 12 45 49 35 58 -3 3 -8 -4 -11
-16 -7 -25 -41 -39 -57 -23 -8 8 -8 14 1 23 32 32 -9 77 -70 79 l-33 0 43 20
c87 38 132 90 132 152 l0 38 30 -21 c34 -24 67 -22 95 6 12 12 13 19 4 30 -17
21 -29 17 -26 -8 1 -18 -4 -24 -25 -26 -66 -8 -108 60 -110 178 -1 59 3 76 21
98 11 15 26 38 32 52 13 31 39 60 53 60 6 0 5 -5 -2 -12 -7 -7 -12 -28 -12
-47 l1 -36 18 45 c24 62 44 91 57 86 7 -3 10 3 7 14 -3 10 0 27 6 39 15 26 11
26 -15 0z"/>
<path d="M1866 1740 c4 -14 7 -33 6 -44 0 -10 2 -16 5 -12 9 8 43 -33 59 -72
8 -18 12 -43 8 -57 -5 -21 -3 -25 15 -25 29 0 26 -24 -6 -48 -17 -13 -24 -25
-20 -36 7 -17 52 -22 62 -6 13 21 25 9 19 -17 -13 -59 -37 -87 -73 -87 -63 -1
-68 -52 -8 -86 24 -13 28 -13 56 8 l31 23 0 -26 c0 -47 48 -113 105 -143 l20
-11 -20 -6 c-34 -11 -48 -21 -68 -47 -15 -21 -17 -32 -10 -54 12 -35 54 -54
77 -34 19 15 21 46 3 53 -10 4 -12 -3 -9 -24 3 -23 1 -29 -15 -29 -27 0 -43
19 -43 50 0 32 26 57 77 75 39 13 66 9 42 -6 -10 -6 -6 -9 12 -9 15 0 37 -9
50 -20 l24 -19 -22 -1 c-13 0 -27 -9 -33 -22 -10 -21 -10 -21 3 -5 8 9 23 17
34 17 20 0 63 -34 63 -50 0 -15 -11 -12 -32 6 -14 13 -21 14 -32 5 -8 -7 -20
-10 -26 -6 -5 3 -10 2 -10 -3 0 -17 29 -22 44 -7 12 12 16 12 30 -4 19 -21 36
-74 36 -113 0 -20 -5 -28 -17 -29 -11 0 -5 -6 15 -15 17 -8 32 -21 32 -29 0
-12 -4 -13 -19 -5 -42 22 -37 8 17 -48 52 -53 102 -92 117 -92 4 0 3 4 0 10
-8 12 1 13 42 1 18 -5 45 -6 60 -1 26 8 25 8 -12 9 -51 1 -97 30 -131 80 -26
40 -29 73 -10 126 4 11 0 8 -9 -7 -19 -34 -25 -35 -25 -3 0 30 46 75 80 76 24
2 24 2 2 6 -13 3 -34 -3 -48 -11 -31 -21 -31 -12 1 25 27 33 24 59 -9 59 -26
0 -49 -16 -64 -45 l-11 -20 -6 20 c-28 84 -40 98 -132 159 -88 57 -122 105
-106 147 6 16 7 29 2 29 -15 0 -22 -50 -11 -75 6 -12 24 -38 42 -58 27 -31 28
-35 9 -30 -32 9 -79 80 -79 121 0 62 72 116 108 80 7 -7 12 -21 12 -31 0 -16
-5 -19 -30 -13 -28 5 -30 4 -20 -14 13 -25 25 -25 50 0 40 40 -23 106 -77 81
-32 -15 -36 -11 -23 23 13 36 13 109 -2 140 -9 21 -8 34 5 66 9 24 11 40 5 40
-6 0 -8 6 -5 14 8 19 -20 56 -41 55 -16 -1 -16 -2 0 -6 20 -5 34 -74 20 -98
-7 -14 -17 -7 -61 41 -47 51 -51 59 -35 65 16 6 15 8 -6 8 -13 1 -39 16 -58
34 -33 31 -34 31 -26 7z m99 -120 c20 -38 20 -80 0 -80 -11 0 -14 7 -9 24 3
14 -1 37 -10 55 -9 17 -12 31 -7 31 6 0 17 -13 26 -30z m51 -85 c7 -39 -13
-88 -39 -93 -23 -5 -22 14 4 46 15 20 19 35 14 60 -4 22 -3 32 4 28 6 -4 13
-22 17 -41z m35 -62 c8 -141 -48 -236 -118 -204 -13 6 -23 14 -23 18 1 20 20
35 38 31 46 -12 82 45 82 132 0 51 19 72 21 23z m365 -494 c3 -6 -6 -23 -21
-39 -19 -20 -29 -43 -34 -82 -7 -53 -11 -51 -25 14 -13 60 53 150 80 107z"/>
<path d="M3730 1729 c-16 -30 -8 -31 13 -3 10 13 13 24 8 24 -6 0 -15 -9 -21
-21z"/>
<path d="M3745 1709 c-4 -6 -4 -13 -1 -16 3 -4 6 -1 6 5 0 17 21 15 35 -5 7
-9 17 -13 23 -9 17 10 15 26 -2 20 -8 -3 -17 -1 -21 5 -8 14 -32 14 -40 0z"/>
<path d="M1995 1650 c4 -6 11 -8 16 -5 14 9 11 15 -7 15 -8 0 -12 -5 -9 -10z"/>
<path d="M3821 1579 c-1 -23 5 -42 16 -50 15 -13 15 -12 4 9 -6 12 -10 26 -8
30 3 4 1 16 -4 27 -6 16 -8 12 -8 -16z"/>
<path d="M3775 1521 c-9 -52 10 -118 42 -147 38 -35 47 -29 18 14 -28 43 -47
116 -24 95 31 -29 90 0 61 29 -8 8 -9 5 -5 -11 4 -17 1 -21 -20 -21 -28 0 -47
24 -47 59 0 36 -18 23 -25 -18z"/>
<path d="M3631 1335 c-2 -43 56 -64 66 -25 5 20 6 20 27 3 l21 -18 -19 23
c-17 20 -21 21 -36 7 -23 -21 -39 -19 -50 8 -8 21 -9 21 -9 2z"/>
<path d="M3698 1123 c7 -3 16 -2 19 1 4 3 -2 6 -13 5 -11 0 -14 -3 -6 -6z"/>
<path d="M3741 1109 c8 -8 21 -23 28 -34 11 -19 12 -19 9 -1 -2 10 -14 25 -28
33 -17 10 -20 11 -9 2z"/>
<path d="M2109 1043 c-13 -16 -12 -17 4 -4 16 13 21 21 13 21 -2 0 -10 -8 -17
-17z"/>
<path d="M3588 1050 c12 -5 22 -18 22 -29 0 -19 -3 -19 -26 -9 -23 11 -29 10
-45 -10 -19 -25 -41 -21 -69 12 -7 9 -17 16 -22 16 -5 0 2 -14 16 -31 21 -25
26 -41 26 -85 0 -30 -4 -54 -10 -54 -5 0 -10 16 -10 35 0 44 -18 83 -42 90
-21 7 -24 31 -5 38 9 4 9 6 -1 6 -20 1 -26 -28 -9 -47 21 -23 41 -76 26 -66
-7 4 -10 3 -7 -2 37 -77 40 -89 29 -126 -14 -45 -57 -98 -79 -98 -12 0 -8 8
14 25 17 13 37 38 44 55 13 30 7 95 -9 105 -5 3 -4 -10 1 -29 10 -30 8 -39
-18 -77 -46 -67 -75 -83 -154 -86 -52 -1 -72 2 -82 14 -12 15 -11 15 9 5 35
-19 37 -14 8 19 -15 19 -26 43 -25 58 3 40 1 47 -10 31 -5 -8 -10 -29 -10 -46
l0 -32 -37 20 c-54 27 -139 21 -165 -13 -10 -13 -22 -29 -28 -36 -5 -7 -10
-17 -10 -22 0 -5 -7 -16 -15 -24 -13 -13 -12 -17 2 -29 12 -9 15 -9 9 0 -5 8
-1 12 11 12 15 0 16 2 3 10 -13 9 -13 12 3 24 9 7 17 21 17 30 0 22 57 56 94
56 39 0 113 -36 127 -62 12 -23 6 -34 -12 -22 -20 12 -67 15 -74 4 -8 -13 -25
-3 -25 16 0 9 11 14 33 14 37 1 19 17 -23 20 -47 4 -59 0 -70 -22 -10 -21 -10
-21 3 -5 23 28 53 22 52 -10 0 -27 1 -28 47 -25 43 3 49 1 57 -20 6 -12 10
-17 10 -10 1 6 6 12 11 12 6 0 10 -18 10 -39 0 -38 -20 -71 -20 -34 -1 10 -7
0 -15 -21 -17 -49 -60 -93 -103 -105 -36 -11 -37 -9 -19 20 10 17 9 22 -8 35
-11 8 -30 13 -42 11 -21 -4 -22 -1 -19 49 2 29 8 60 15 68 9 11 8 15 -4 20
-15 5 -19 -5 -16 -33 2 -7 -2 -10 -8 -6 -7 4 -11 -5 -12 -22 -1 -17 -3 -21 -6
-10 -2 9 -9 17 -13 17 -6 0 -5 -11 0 -26 13 -33 13 -57 0 -49 -5 3 -10 0 -10
-8 0 -10 -8 -13 -25 -9 -29 5 -55 -13 -54 -37 0 -10 3 -8 10 7 9 25 46 27 41
3 -2 -10 3 -11 15 -5 10 4 30 7 45 7 15 0 29 6 32 13 7 18 30 18 44 1 9 -10 7
-19 -4 -35 -16 -24 -44 -28 -74 -12 -12 7 -21 7 -25 0 -3 -5 -29 -9 -58 -9
-64 1 -111 33 -138 93 -33 72 -23 118 26 128 17 3 18 5 4 10 -26 10 -59 -19
-59 -53 0 -16 -4 -29 -10 -29 -5 0 -10 15 -10 34 0 36 32 86 56 86 8 0 14 6
14 14 0 8 12 19 28 24 15 6 20 11 11 11 -9 1 -34 -12 -56 -28 l-39 -28 4 27
c2 15 -1 31 -7 34 -7 5 -11 -2 -11 -17 0 -39 -29 -97 -53 -108 -23 -10 -35
-49 -16 -49 6 0 8 4 5 8 -3 5 7 21 23 36 l28 27 1 -30 c1 -40 37 -119 70 -155
31 -33 80 -56 119 -56 21 0 24 -3 15 -12 -17 -17 -15 -25 9 -31 14 -4 28 2 44
18 12 14 25 22 28 18 11 -10 8 -93 -3 -93 -5 0 -10 16 -10 36 l0 35 -26 -28
c-17 -19 -27 -24 -31 -15 -5 13 -23 7 -23 -9 0 -12 33 -12 47 2 7 7 12 1 17
-21 7 -39 38 -38 46 2 4 22 8 25 20 18 23 -15 50 -12 50 5 0 8 -4 15 -10 15
-12 0 -44 49 -37 57 3 3 27 9 52 14 61 11 117 57 149 121 14 29 26 47 26 40 0
-19 21 -14 27 7 3 13 12 18 25 16 21 -4 21 -4 0 18 l-21 22 53 -3 c69 -5 127
23 190 88 27 28 53 50 59 50 6 0 7 3 4 6 -4 4 -14 1 -23 -7 -14 -12 -16 -11
-13 6 3 12 18 25 39 32 33 11 34 12 8 12 -27 1 -28 3 -28 52 0 61 36 134 52
105 5 -9 13 -16 18 -16 11 0 40 29 40 40 0 15 -31 40 -48 39 -12 0 -11 -3 6
-9z m-368 -440 c0 -13 -1 -13 -10 0 -5 8 -10 22 -10 30 0 13 1 13 10 0 5 -8
10 -22 10 -30z m-310 -189 c0 -13 -29 -35 -37 -28 -7 8 15 37 28 37 5 0 9 -4
9 -9z m78 -76 c-7 -8 -38 23 -38 38 0 6 10 2 22 -10 12 -13 19 -25 16 -28z"/>
<path d="M3406 936 c10 -8 21 -12 24 -10 5 6 -21 24 -34 24 -6 0 -1 -6 10 -14z"/>
<path d="M3355 901 c-20 -4 -26 -9 -18 -14 7 -4 21 -3 32 3 11 5 28 7 38 4 15
-5 15 -4 3 5 -8 6 -17 10 -20 10 -3 -1 -18 -4 -35 -8z"/>
<path d="M2501 893 c-1 -6 -11 -13 -23 -16 -21 -3 -21 -4 -5 -12 21 -9 42 7
34 27 -3 8 -6 9 -6 1z"/>
<path d="M3244 847 c11 -8 17 -23 14 -37 -4 -32 -34 -38 -41 -9 -3 12 -10 18
-17 14 -16 -10 12 -49 38 -53 18 -3 52 30 52 50 0 12 -39 48 -52 48 -6 0 -4
-6 6 -13z"/>
<path d="M2554 796 c-3 -13 -1 -34 6 -45 21 -40 88 -17 77 26 -4 15 -5 14 -6
-3 -2 -41 -71 -35 -71 6 0 10 8 24 18 29 16 10 16 10 0 11 -10 0 -20 -10 -24
-24z"/>
<path d="M3585 806 c-16 -19 -16 -36 -1 -36 16 0 27 22 18 37 -5 7 -10 7 -17
-1z"/>
<path d="M2246 791 c-22 -24 -6 -68 17 -45 3 4 2 15 -3 25 -8 13 -6 20 7 28
10 6 13 11 7 11 -6 0 -18 -8 -28 -19z"/>
<path d="M2860 749 c14 -5 31 -17 38 -26 6 -9 12 -12 12 -5 0 14 -40 42 -60
41 -8 0 -4 -5 10 -10z"/>
<path d="M2763 730 c-13 -5 -23 -13 -23 -16 0 -4 3 -4 6 -1 10 10 44 -12 44
-28 0 -8 -8 -15 -17 -15 -17 -1 -17 -1 0 -11 24 -14 40 -1 34 27 -5 27 10 31
46 13 l22 -11 -20 20 c-25 25 -62 34 -92 22z"/>
<path d="M2836 671 c-5 -7 -3 -18 3 -24 14 -14 20 -6 11 17 -5 15 -9 16 -14 7z"/>
<path d="M2998 407 c7 -8 9 -17 5 -20 -3 -4 -1 -7 5 -7 18 0 14 27 -4 34 -13
5 -14 4 -6 -7z"/>
</g>
</svg>
